# xmcd
#
# Track frame offsets:
#	150
#	6770
#	24276
#	40195
#	60098
#	83780
#	103226
#	123400
#	129902
#	151230
#	158739
#	183417
#
# Disc length: 2811 seconds
#
# Revision: 1
# Processed by: cddbd v1.5.1PL2 Copyright (c) Steve Scherf et al.
# Submitted via: EasyCDDAExtractor 9.0.0.1
#
DISCID=830af90c
DTITLE=Accept - Luzhniki Sports Arena Moscow 27-04-05 Disc 1
DYEAR=2005
DGENRE=Hard Rock
TTITLE0=Opening
TTITLE1=Starlight
TTITLE2=Living For Tonight
TTITLE3=London Leatherboys
TTITLE4=Metal Heart
TTITLE5=Love Child
TTITLE6=Breaker
TTITLE7=Peter Baltes Bass Solo
TTITLE8=Head Over Heels
TTITLE9=Wolf Guitar Intro
TTITLE10=Neon Nights
TTITLE11=Wolf Hoffmann Guitar Solo - Bolero - Sabre Dance - In The Hall Of The
TTITLE11=Mountain King - Pomp and Circumstance
EXTD=
EXTT0=
EXTT1=
EXTT2=
EXTT3=
EXTT4=
EXTT5=
EXTT6=
EXTT7=
EXTT8=
EXTT9=
EXTT10=
EXTT11=
PLAYORDER=
